<svg width="65" height="64" viewBox="0 0 65 64" fill="none" xmlns="http://www.w3.org/2000/svg">
<path d="M47.3444 5.33325H17.1222C10.7403 5.33325 5.56667 10.5069 5.56667 16.8888V47.111C5.56667 53.493 10.7403 58.6666 17.1222 58.6666H47.3444C53.7264 58.6666 58.9 53.493 58.9 47.111V16.8888C58.9 10.5069 53.7264 5.33325 47.3444 5.33325Z" fill="#00B900"/>
<path d="M51.5669 29.6528C51.5669 20.9639 42.8558 13.8972 32.1491 13.8972C21.4424 13.8972 12.7313 20.9639 12.7313 29.6528C12.7313 37.4439 19.638 43.9683 28.9713 45.2083C29.6024 45.3461 30.4647 45.6261 30.6824 46.1683C30.8341 46.7415 30.8553 47.3414 30.7447 47.9239L30.4691 49.5861C30.3847 50.075 30.078 51.5061 32.1491 50.6306C34.2202 49.755 43.3313 44.0483 47.4069 39.3595C50.2202 36.2706 51.5669 33.1372 51.5669 29.6617" fill="white"/>
<path d="M28.2021 25.4539H26.8421C26.7924 25.4539 26.7433 25.4636 26.6975 25.4826C26.6517 25.5016 26.61 25.5294 26.5749 25.5645C26.5398 25.5996 26.512 25.6412 26.493 25.6871C26.474 25.7329 26.4643 25.782 26.4643 25.8316V34.2761C26.4643 34.3763 26.5041 34.4724 26.5749 34.5432C26.6458 34.614 26.7419 34.6538 26.8421 34.6538H28.2021C28.2517 34.6538 28.3008 34.6441 28.3466 34.6251C28.3925 34.6061 28.4341 34.5783 28.4692 34.5432C28.5043 34.5081 28.5321 34.4665 28.5511 34.4206C28.5701 34.3748 28.5798 34.3257 28.5798 34.2761V25.8316C28.5798 25.782 28.5701 25.7329 28.5511 25.6871C28.5321 25.6412 28.5043 25.5996 28.4692 25.5645C28.4341 25.5294 28.3925 25.5016 28.3466 25.4826C28.3008 25.4636 28.2517 25.4539 28.2021 25.4539Z" fill="#00B900"/>
<path d="M37.5931 25.4539H36.2153C36.1657 25.4539 36.1166 25.4637 36.0708 25.4827C36.0249 25.5017 35.9833 25.5295 35.9482 25.5646C35.9131 25.5997 35.8853 25.6413 35.8663 25.6871C35.8473 25.733 35.8376 25.7821 35.8376 25.8317V30.8584L31.962 25.6228L31.9309 25.5873L31.9042 25.565H31.882H31.8598H30.3576C30.308 25.565 30.2588 25.5748 30.213 25.5938C30.1672 25.6128 30.1255 25.6406 30.0904 25.6757C30.0554 25.7108 30.0275 25.7524 30.0085 25.7982C29.9896 25.8441 29.9798 25.8932 29.9798 25.9428V34.3873C29.9798 34.4369 29.9896 34.486 30.0085 34.5318C30.0275 34.5776 30.0554 34.6193 30.0904 34.6544C30.1255 34.6895 30.1672 34.7173 30.213 34.7363C30.2588 34.7553 30.308 34.765 30.3576 34.765H31.722C31.8222 34.765 31.9183 34.7252 31.9891 34.6544C32.06 34.5835 32.0998 34.4874 32.0998 34.3873V29.2673L35.9842 34.5117C36.0083 34.5491 36.0401 34.581 36.0776 34.605H36.0998H36.1265C36.1589 34.6094 36.1918 34.6094 36.2242 34.605H37.5931C37.6933 34.605 37.7894 34.5652 37.8602 34.4944C37.9311 34.4235 37.9709 34.3274 37.9709 34.2273V25.7828C37.9709 25.6826 37.9311 25.5865 37.8602 25.5157C37.7894 25.4448 37.6933 25.405 37.5931 25.405" fill="#00B900"/>
<path d="M24.9218 32.5516H21.2196V25.8316C21.2196 25.782 21.2098 25.7329 21.1908 25.6871C21.1719 25.6412 21.144 25.5996 21.109 25.5645C21.0739 25.5294 21.0322 25.5016 20.9864 25.4826C20.9406 25.4636 20.8914 25.4539 20.8418 25.4539H19.4774C19.3772 25.4539 19.2811 25.4937 19.2102 25.5645C19.1394 25.6354 19.0996 25.7314 19.0996 25.8316V34.2761C19.0992 34.3247 19.1085 34.3728 19.1268 34.4178C19.1451 34.4628 19.1721 34.5038 19.2063 34.5383C19.2765 34.6065 19.3706 34.6447 19.4685 34.645H24.9129C24.9625 34.645 25.0117 34.6352 25.0575 34.6162C25.1033 34.5972 25.145 34.5694 25.1801 34.5343C25.2151 34.4992 25.243 34.4576 25.262 34.4118C25.2809 34.3659 25.2907 34.3168 25.2907 34.2672V32.9028C25.2907 32.8531 25.2809 32.804 25.262 32.7582C25.243 32.7123 25.2151 32.6707 25.1801 32.6356C25.145 32.6005 25.1033 32.5727 25.0575 32.5537C25.0117 32.5347 24.9625 32.525 24.9129 32.525" fill="#00B900"/>
<path d="M45.0996 27.5739C45.1998 27.5739 45.2959 27.5341 45.3667 27.4632C45.4376 27.3924 45.4774 27.2963 45.4774 27.1961V25.8361C45.478 25.7861 45.4686 25.7365 45.4499 25.6901C45.4312 25.6438 45.4035 25.6016 45.3683 25.5661C45.3332 25.5305 45.2913 25.5023 45.2452 25.483C45.1991 25.4638 45.1496 25.4539 45.0996 25.4539H39.6596C39.562 25.4554 39.4684 25.4935 39.3974 25.5605C39.3323 25.6306 39.2958 25.7226 39.2952 25.8183V34.2628C39.2951 34.3599 39.3316 34.4535 39.3974 34.525C39.4319 34.5591 39.4729 34.5862 39.5179 34.6045C39.5629 34.6228 39.611 34.632 39.6596 34.6316H45.0996C45.1998 34.6316 45.2959 34.5918 45.3667 34.521C45.4376 34.4501 45.4774 34.354 45.4774 34.2539V32.8894C45.4774 32.7892 45.4376 32.6931 45.3667 32.6223C45.2959 32.5514 45.1998 32.5116 45.0996 32.5116H41.3974V31.085H45.0996C45.2002 31.0838 45.2963 31.043 45.367 30.9715C45.4377 30.8999 45.4774 30.8034 45.4774 30.7027V29.3427C45.4774 29.2426 45.4376 29.1465 45.3667 29.0756C45.2959 29.0048 45.1998 28.965 45.0996 28.965H41.3974V27.5339L45.0996 27.5739Z" fill="#00B900"/>
</svg>
